<?xml version="1.0" encoding="utf-8" standalone="no"?>
<!DOCTYPE svg PUBLIC "-//W3C//DTD SVG 1.1//EN"
  "http://www.w3.org/Graphics/SVG/1.1/DTD/svg11.dtd">
<svg xmlns:xlink="http://www.w3.org/1999/xlink" width="432pt" height="288pt" viewBox="0 0 432 288" xmlns="http://www.w3.org/2000/svg" version="1.1">
 <metadata>
  <rdf:RDF xmlns:dc="http://purl.org/dc/elements/1.1/" xmlns:cc="http://creativecommons.org/ns#" xmlns:rdf="http://www.w3.org/1999/02/22-rdf-syntax-ns#">
   <cc:Work>
    <dc:type rdf:resource="http://purl.org/dc/dcmitype/StillImage"/>
    <dc:date>2022-11-09T20:16:12.949424</dc:date>
    <dc:format>image/svg+xml</dc:format>
    <dc:creator>
     <cc:Agent>
      <dc:title>Matplotlib v3.5.2, https://matplotlib.org/</dc:title>
     </cc:Agent>
    </dc:creator>
   </cc:Work>
  </rdf:RDF>
 </metadata>
 <defs>
  <style type="text/css">*{stroke-linejoin: round; stroke-linecap: butt}</style>
 </defs>
 <g id="figure_1">
  <g id="patch_1">
   <path d="M 0 288 
L 432 288 
L 432 0 
L 0 0 
L 0 288 
z
" style="fill: none"/>
  </g>
  <g id="axes_1">
   <g id="patch_2">
    <path d="M 54 252 
L 388.8 252 
L 388.8 34.56 
L 54 34.56 
z
" style="fill: #ffffff"/>
   </g>
   <g id="matplotlib.axis_1">
    <g id="xtick_1">
     <g id="line2d_1">
      <defs>
       <path id="me9620c60f1" d="M 0 0 
L 0 3.5 
" style="stroke: #000000; stroke-width: 0.8"/>
      </defs>
      <g>
       <use xlink:href="#me9620c60f1" x="117.275598" y="252" style="stroke: #000000; stroke-width: 0.8"/>
      </g>
     </g>
     <g id="text_1">
      <!-- 1000 -->
      <g transform="translate(104.550598 266.598437)scale(0.1 -0.1)">
       <defs>
        <path id="DejaVuSans-31" d="M 794 531 
L 1825 531 
L 1825 4091 
L 703 3866 
L 703 4441 
L 1819 4666 
L 2450 4666 
L 2450 531 
L 3481 531 
L 3481 0 
L 794 0 
L 794 531 
z
" transform="scale(0.015625)"/>
        <path id="DejaVuSans-30" d="M 2034 4250 
Q 1547 4250 1301 3770 
Q 1056 3291 1056 2328 
Q 1056 1369 1301 889 
Q 1547 409 2034 409 
Q 2525 409 2770 889 
Q 3016 1369 3016 2328 
Q 3016 3291 2770 3770 
Q 2525 4250 2034 4250 
z
M 2034 4750 
Q 2819 4750 3233 4129 
Q 3647 3509 3647 2328 
Q 3647 1150 3233 529 
Q 2819 -91 2034 -91 
Q 1250 -91 836 529 
Q 422 1150 422 2328 
Q 422 3509 836 4129 
Q 1250 4750 2034 4750 
z
" transform="scale(0.015625)"/>
       </defs>
       <use xlink:href="#DejaVuSans-31"/>
       <use xlink:href="#DejaVuSans-30" x="63.623047"/>
       <use xlink:href="#DejaVuSans-30" x="127.246094"/>
       <use xlink:href="#DejaVuSans-30" x="190.869141"/>
      </g>
     </g>
    </g>
    <g id="xtick_2">
     <g id="line2d_2">
      <g>
       <use xlink:href="#me9620c60f1" x="181.352153" y="252" style="stroke: #000000; stroke-width: 0.8"/>
      </g>
     </g>
     <g id="text_2">
      <!-- 2000 -->
      <g transform="translate(168.627153 266.598437)scale(0.1 -0.1)">
       <defs>
        <path id="DejaVuSans-32" d="M 1228 531 
L 3431 531 
L 3431 0 
L 469 0 
L 469 531 
Q 828 903 1448 1529 
Q 2069 2156 2228 2338 
Q 2531 2678 2651 2914 
Q 2772 3150 2772 3378 
Q 2772 3750 2511 3984 
Q 2250 4219 1831 4219 
Q 1534 4219 1204 4116 
Q 875 4013 500 3803 
L 500 4441 
Q 881 4594 1212 4672 
Q 1544 4750 1819 4750 
Q 2544 4750 2975 4387 
Q 3406 4025 3406 3419 
Q 3406 3131 3298 2873 
Q 3191 2616 2906 2266 
Q 2828 2175 2409 1742 
Q 1991 1309 1228 531 
z
" transform="scale(0.015625)"/>
       </defs>
       <use xlink:href="#DejaVuSans-32"/>
       <use xlink:href="#DejaVuSans-30" x="63.623047"/>
       <use xlink:href="#DejaVuSans-30" x="127.246094"/>
       <use xlink:href="#DejaVuSans-30" x="190.869141"/>
      </g>
     </g>
    </g>
    <g id="xtick_3">
     <g id="line2d_3">
      <g>
       <use xlink:href="#me9620c60f1" x="245.428708" y="252" style="stroke: #000000; stroke-width: 0.8"/>
      </g>
     </g>
     <g id="text_3">
      <!-- 3000 -->
      <g transform="translate(232.703708 266.598437)scale(0.1 -0.1)">
       <defs>
        <path id="DejaVuSans-33" d="M 2597 2516 
Q 3050 2419 3304 2112 
Q 3559 1806 3559 1356 
Q 3559 666 3084 287 
Q 2609 -91 1734 -91 
Q 1441 -91 1130 -33 
Q 819 25 488 141 
L 488 750 
Q 750 597 1062 519 
Q 1375 441 1716 441 
Q 2309 441 2620 675 
Q 2931 909 2931 1356 
Q 2931 1769 2642 2001 
Q 2353 2234 1838 2234 
L 1294 2234 
L 1294 2753 
L 1863 2753 
Q 2328 2753 2575 2939 
Q 2822 3125 2822 3475 
Q 2822 3834 2567 4026 
Q 2313 4219 1838 4219 
Q 1578 4219 1281 4162 
Q 984 4106 628 3988 
L 628 4550 
Q 988 4650 1302 4700 
Q 1616 4750 1894 4750 
Q 2613 4750 3031 4423 
Q 3450 4097 3450 3541 
Q 3450 3153 3228 2886 
Q 3006 2619 2597 2516 
z
" transform="scale(0.015625)"/>
       </defs>
       <use xlink:href="#DejaVuSans-33"/>
       <use xlink:href="#DejaVuSans-30" x="63.623047"/>
       <use xlink:href="#DejaVuSans-30" x="127.246094"/>
       <use xlink:href="#DejaVuSans-30" x="190.869141"/>
      </g>
     </g>
    </g>
    <g id="xtick_4">
     <g id="line2d_4">
      <g>
       <use xlink:href="#me9620c60f1" x="309.505263" y="252" style="stroke: #000000; stroke-width: 0.8"/>
      </g>
     </g>
     <g id="text_4">
      <!-- 4000 -->
      <g transform="translate(296.780263 266.598437)scale(0.1 -0.1)">
       <defs>
        <path id="DejaVuSans-34" d="M 2419 4116 
L 825 1625 
L 2419 1625 
L 2419 4116 
z
M 2253 4666 
L 3047 4666 
L 3047 1625 
L 3713 1625 
L 3713 1100 
L 3047 1100 
L 3047 0 
L 2419 0 
L 2419 1100 
L 313 1100 
L 313 1709 
L 2253 4666 
z
" transform="scale(0.015625)"/>
       </defs>
       <use xlink:href="#DejaVuSans-34"/>
       <use xlink:href="#DejaVuSans-30" x="63.623047"/>
       <use xlink:href="#DejaVuSans-30" x="127.246094"/>
       <use xlink:href="#DejaVuSans-30" x="190.869141"/>
      </g>
     </g>
    </g>
    <g id="xtick_5">
     <g id="line2d_5">
      <g>
       <use xlink:href="#me9620c60f1" x="373.581818" y="252" style="stroke: #000000; stroke-width: 0.8"/>
      </g>
     </g>
     <g id="text_5">
      <!-- 5000 -->
      <g transform="translate(360.856818 266.598437)scale(0.1 -0.1)">
       <defs>
        <path id="DejaVuSans-35" d="M 691 4666 
L 3169 4666 
L 3169 4134 
L 1269 4134 
L 1269 2991 
Q 1406 3038 1543 3061 
Q 1681 3084 1819 3084 
Q 2600 3084 3056 2656 
Q 3513 2228 3513 1497 
Q 3513 744 3044 326 
Q 2575 -91 1722 -91 
Q 1428 -91 1123 -41 
Q 819 9 494 109 
L 494 744 
Q 775 591 1075 516 
Q 1375 441 1709 441 
Q 2250 441 2565 725 
Q 2881 1009 2881 1497 
Q 2881 1984 2565 2268 
Q 2250 2553 1709 2553 
Q 1456 2553 1204 2497 
Q 953 2441 691 2322 
L 691 4666 
z
" transform="scale(0.015625)"/>
       </defs>
       <use xlink:href="#DejaVuSans-35"/>
       <use xlink:href="#DejaVuSans-30" x="63.623047"/>
       <use xlink:href="#DejaVuSans-30" x="127.246094"/>
       <use xlink:href="#DejaVuSans-30" x="190.869141"/>
      </g>
     </g>
    </g>
    <g id="text_6">
     <!-- Dimension -->
     <g transform="translate(194.823438 280.276563)scale(0.1 -0.1)">
      <defs>
       <path id="DejaVuSans-44" d="M 1259 4147 
L 1259 519 
L 2022 519 
Q 2988 519 3436 956 
Q 3884 1394 3884 2338 
Q 3884 3275 3436 3711 
Q 2988 4147 2022 4147 
L 1259 4147 
z
M 628 4666 
L 1925 4666 
Q 3281 4666 3915 4102 
Q 4550 3538 4550 2338 
Q 4550 1131 3912 565 
Q 3275 0 1925 0 
L 628 0 
L 628 4666 
z
" transform="scale(0.015625)"/>
       <path id="DejaVuSans-69" d="M 603 3500 
L 1178 3500 
L 1178 0 
L 603 0 
L 603 3500 
z
M 603 4863 
L 1178 4863 
L 1178 4134 
L 603 4134 
L 603 4863 
z
" transform="scale(0.015625)"/>
       <path id="DejaVuSans-6d" d="M 3328 2828 
Q 3544 3216 3844 3400 
Q 4144 3584 4550 3584 
Q 5097 3584 5394 3201 
Q 5691 2819 5691 2113 
L 5691 0 
L 5113 0 
L 5113 2094 
Q 5113 2597 4934 2840 
Q 4756 3084 4391 3084 
Q 3944 3084 3684 2787 
Q 3425 2491 3425 1978 
L 3425 0 
L 2847 0 
L 2847 2094 
Q 2847 2600 2669 2842 
Q 2491 3084 2119 3084 
Q 1678 3084 1418 2786 
Q 1159 2488 1159 1978 
L 1159 0 
L 581 0 
L 581 3500 
L 1159 3500 
L 1159 2956 
Q 1356 3278 1631 3431 
Q 1906 3584 2284 3584 
Q 2666 3584 2933 3390 
Q 3200 3197 3328 2828 
z
" transform="scale(0.015625)"/>
       <path id="DejaVuSans-65" d="M 3597 1894 
L 3597 1613 
L 953 1613 
Q 991 1019 1311 708 
Q 1631 397 2203 397 
Q 2534 397 2845 478 
Q 3156 559 3463 722 
L 3463 178 
Q 3153 47 2828 -22 
Q 2503 -91 2169 -91 
Q 1331 -91 842 396 
Q 353 884 353 1716 
Q 353 2575 817 3079 
Q 1281 3584 2069 3584 
Q 2775 3584 3186 3129 
Q 3597 2675 3597 1894 
z
M 3022 2063 
Q 3016 2534 2758 2815 
Q 2500 3097 2075 3097 
Q 1594 3097 1305 2825 
Q 1016 2553 972 2059 
L 3022 2063 
z
" transform="scale(0.015625)"/>
       <path id="DejaVuSans-6e" d="M 3513 2113 
L 3513 0 
L 2938 0 
L 2938 2094 
Q 2938 2591 2744 2837 
Q 2550 3084 2163 3084 
Q 1697 3084 1428 2787 
Q 1159 2491 1159 1978 
L 1159 0 
L 581 0 
L 581 3500 
L 1159 3500 
L 1159 2956 
Q 1366 3272 1645 3428 
Q 1925 3584 2291 3584 
Q 2894 3584 3203 3211 
Q 3513 2838 3513 2113 
z
" transform="scale(0.015625)"/>
       <path id="DejaVuSans-73" d="M 2834 3397 
L 2834 2853 
Q 2591 2978 2328 3040 
Q 2066 3103 1784 3103 
Q 1356 3103 1142 2972 
Q 928 2841 928 2578 
Q 928 2378 1081 2264 
Q 1234 2150 1697 2047 
L 1894 2003 
Q 2506 1872 2764 1633 
Q 3022 1394 3022 966 
Q 3022 478 2636 193 
Q 2250 -91 1575 -91 
Q 1294 -91 989 -36 
Q 684 19 347 128 
L 347 722 
Q 666 556 975 473 
Q 1284 391 1588 391 
Q 1994 391 2212 530 
Q 2431 669 2431 922 
Q 2431 1156 2273 1281 
Q 2116 1406 1581 1522 
L 1381 1569 
Q 847 1681 609 1914 
Q 372 2147 372 2553 
Q 372 3047 722 3315 
Q 1072 3584 1716 3584 
Q 2034 3584 2315 3537 
Q 2597 3491 2834 3397 
z
" transform="scale(0.015625)"/>
       <path id="DejaVuSans-6f" d="M 1959 3097 
Q 1497 3097 1228 2736 
Q 959 2375 959 1747 
Q 959 1119 1226 758 
Q 1494 397 1959 397 
Q 2419 397 2687 759 
Q 2956 1122 2956 1747 
Q 2956 2369 2687 2733 
Q 2419 3097 1959 3097 
z
M 1959 3584 
Q 2709 3584 3137 3096 
Q 3566 2609 3566 1747 
Q 3566 888 3137 398 
Q 2709 -91 1959 -91 
Q 1206 -91 779 398 
Q 353 888 353 1747 
Q 353 2609 779 3096 
Q 1206 3584 1959 3584 
z
" transform="scale(0.015625)"/>
      </defs>
      <use xlink:href="#DejaVuSans-44"/>
      <use xlink:href="#DejaVuSans-69" x="77.001953"/>
      <use xlink:href="#DejaVuSans-6d" x="104.785156"/>
      <use xlink:href="#DejaVuSans-65" x="202.197266"/>
      <use xlink:href="#DejaVuSans-6e" x="263.720703"/>
      <use xlink:href="#DejaVuSans-73" x="327.099609"/>
      <use xlink:href="#DejaVuSans-69" x="379.199219"/>
      <use xlink:href="#DejaVuSans-6f" x="406.982422"/>
      <use xlink:href="#DejaVuSans-6e" x="468.164062"/>
     </g>
    </g>
   </g>
   <g id="matplotlib.axis_2">
    <g id="ytick_1">
     <g id="line2d_6">
      <defs>
       <path id="m1ade091da7" d="M 0 0 
L -3.5 0 
" style="stroke: #000000; stroke-width: 0.8"/>
      </defs>
      <g>
       <use xlink:href="#m1ade091da7" x="54" y="194.186701" style="stroke: #000000; stroke-width: 0.8"/>
      </g>
     </g>
     <g id="text_7">
      <!-- $\mathdefault{10^{-1}}$ -->
      <g transform="translate(23.5 197.985919)scale(0.1 -0.1)">
       <defs>
        <path id="DejaVuSans-2212" d="M 678 2272 
L 4684 2272 
L 4684 1741 
L 678 1741 
L 678 2272 
z
" transform="scale(0.015625)"/>
       </defs>
       <use xlink:href="#DejaVuSans-31" transform="translate(0 0.684375)"/>
       <use xlink:href="#DejaVuSans-30" transform="translate(63.623047 0.684375)"/>
       <use xlink:href="#DejaVuSans-2212" transform="translate(128.203125 38.965625)scale(0.7)"/>
       <use xlink:href="#DejaVuSans-31" transform="translate(186.855469 38.965625)scale(0.7)"/>
      </g>
     </g>
    </g>
    <g id="ytick_2">
     <g id="line2d_7">
      <g>
       <use xlink:href="#m1ade091da7" x="54" y="126.707528" style="stroke: #000000; stroke-width: 0.8"/>
      </g>
     </g>
     <g id="text_8">
      <!-- $\mathdefault{10^{0}}$ -->
      <g transform="translate(29.4 130.506746)scale(0.1 -0.1)">
       <use xlink:href="#DejaVuSans-31" transform="translate(0 0.765625)"/>
       <use xlink:href="#DejaVuSans-30" transform="translate(63.623047 0.765625)"/>
       <use xlink:href="#DejaVuSans-30" transform="translate(128.203125 39.046875)scale(0.7)"/>
      </g>
     </g>
    </g>
    <g id="ytick_3">
     <g id="line2d_8">
      <g>
       <use xlink:href="#m1ade091da7" x="54" y="59.228355" style="stroke: #000000; stroke-width: 0.8"/>
      </g>
     </g>
     <g id="text_9">
      <!-- $\mathdefault{10^{1}}$ -->
      <g transform="translate(29.4 63.027574)scale(0.1 -0.1)">
       <use xlink:href="#DejaVuSans-31" transform="translate(0 0.684375)"/>
       <use xlink:href="#DejaVuSans-30" transform="translate(63.623047 0.684375)"/>
       <use xlink:href="#DejaVuSans-31" transform="translate(128.203125 38.965625)scale(0.7)"/>
      </g>
     </g>
    </g>
    <g id="ytick_4">
     <g id="line2d_9">
      <defs>
       <path id="m46dcdb235e" d="M 0 0 
L -2 0 
" style="stroke: #000000; stroke-width: 0.6"/>
      </defs>
      <g>
       <use xlink:href="#m46dcdb235e" x="54" y="241.352618" style="stroke: #000000; stroke-width: 0.6"/>
      </g>
     </g>
    </g>
    <g id="ytick_5">
     <g id="line2d_10">
      <g>
       <use xlink:href="#m46dcdb235e" x="54" y="229.470126" style="stroke: #000000; stroke-width: 0.6"/>
      </g>
     </g>
    </g>
    <g id="ytick_6">
     <g id="line2d_11">
      <g>
       <use xlink:href="#m46dcdb235e" x="54" y="221.039363" style="stroke: #000000; stroke-width: 0.6"/>
      </g>
     </g>
    </g>
    <g id="ytick_7">
     <g id="line2d_12">
      <g>
       <use xlink:href="#m46dcdb235e" x="54" y="214.499956" style="stroke: #000000; stroke-width: 0.6"/>
      </g>
     </g>
    </g>
    <g id="ytick_8">
     <g id="line2d_13">
      <g>
       <use xlink:href="#m46dcdb235e" x="54" y="209.156871" style="stroke: #000000; stroke-width: 0.6"/>
      </g>
     </g>
    </g>
    <g id="ytick_9">
     <g id="line2d_14">
      <g>
       <use xlink:href="#m46dcdb235e" x="54" y="204.639357" style="stroke: #000000; stroke-width: 0.6"/>
      </g>
     </g>
    </g>
    <g id="ytick_10">
     <g id="line2d_15">
      <g>
       <use xlink:href="#m46dcdb235e" x="54" y="200.726108" style="stroke: #000000; stroke-width: 0.6"/>
      </g>
     </g>
    </g>
    <g id="ytick_11">
     <g id="line2d_16">
      <g>
       <use xlink:href="#m46dcdb235e" x="54" y="197.274378" style="stroke: #000000; stroke-width: 0.6"/>
      </g>
     </g>
    </g>
    <g id="ytick_12">
     <g id="line2d_17">
      <g>
       <use xlink:href="#m46dcdb235e" x="54" y="173.873446" style="stroke: #000000; stroke-width: 0.6"/>
      </g>
     </g>
    </g>
    <g id="ytick_13">
     <g id="line2d_18">
      <g>
       <use xlink:href="#m46dcdb235e" x="54" y="161.990953" style="stroke: #000000; stroke-width: 0.6"/>
      </g>
     </g>
    </g>
    <g id="ytick_14">
     <g id="line2d_19">
      <g>
       <use xlink:href="#m46dcdb235e" x="54" y="153.56019" style="stroke: #000000; stroke-width: 0.6"/>
      </g>
     </g>
    </g>
    <g id="ytick_15">
     <g id="line2d_20">
      <g>
       <use xlink:href="#m46dcdb235e" x="54" y="147.020783" style="stroke: #000000; stroke-width: 0.6"/>
      </g>
     </g>
    </g>
    <g id="ytick_16">
     <g id="line2d_21">
      <g>
       <use xlink:href="#m46dcdb235e" x="54" y="141.677698" style="stroke: #000000; stroke-width: 0.6"/>
      </g>
     </g>
    </g>
    <g id="ytick_17">
     <g id="line2d_22">
      <g>
       <use xlink:href="#m46dcdb235e" x="54" y="137.160184" style="stroke: #000000; stroke-width: 0.6"/>
      </g>
     </g>
    </g>
    <g id="ytick_18">
     <g id="line2d_23">
      <g>
       <use xlink:href="#m46dcdb235e" x="54" y="133.246935" style="stroke: #000000; stroke-width: 0.6"/>
      </g>
     </g>
    </g>
    <g id="ytick_19">
     <g id="line2d_24">
      <g>
       <use xlink:href="#m46dcdb235e" x="54" y="129.795205" style="stroke: #000000; stroke-width: 0.6"/>
      </g>
     </g>
    </g>
    <g id="ytick_20">
     <g id="line2d_25">
      <g>
       <use xlink:href="#m46dcdb235e" x="54" y="106.394273" style="stroke: #000000; stroke-width: 0.6"/>
      </g>
     </g>
    </g>
    <g id="ytick_21">
     <g id="line2d_26">
      <g>
       <use xlink:href="#m46dcdb235e" x="54" y="94.51178" style="stroke: #000000; stroke-width: 0.6"/>
      </g>
     </g>
    </g>
    <g id="ytick_22">
     <g id="line2d_27">
      <g>
       <use xlink:href="#m46dcdb235e" x="54" y="86.081017" style="stroke: #000000; stroke-width: 0.6"/>
      </g>
     </g>
    </g>
    <g id="ytick_23">
     <g id="line2d_28">
      <g>
       <use xlink:href="#m46dcdb235e" x="54" y="79.54161" style="stroke: #000000; stroke-width: 0.6"/>
      </g>
     </g>
    </g>
    <g id="ytick_24">
     <g id="line2d_29">
      <g>
       <use xlink:href="#m46dcdb235e" x="54" y="74.198525" style="stroke: #000000; stroke-width: 0.6"/>
      </g>
     </g>
    </g>
    <g id="ytick_25">
     <g id="line2d_30">
      <g>
       <use xlink:href="#m46dcdb235e" x="54" y="69.681011" style="stroke: #000000; stroke-width: 0.6"/>
      </g>
     </g>
    </g>
    <g id="ytick_26">
     <g id="line2d_31">
      <g>
       <use xlink:href="#m46dcdb235e" x="54" y="65.767762" style="stroke: #000000; stroke-width: 0.6"/>
      </g>
     </g>
    </g>
    <g id="ytick_27">
     <g id="line2d_32">
      <g>
       <use xlink:href="#m46dcdb235e" x="54" y="62.316032" style="stroke: #000000; stroke-width: 0.6"/>
      </g>
     </g>
    </g>
    <g id="ytick_28">
     <g id="line2d_33">
      <g>
       <use xlink:href="#m46dcdb235e" x="54" y="38.9151" style="stroke: #000000; stroke-width: 0.6"/>
      </g>
     </g>
    </g>
    <g id="text_10">
     <!-- Real Time (ms) -->
     <g transform="translate(17.420312 180.847188)rotate(-90)scale(0.1 -0.1)">
      <defs>
       <path id="DejaVuSans-52" d="M 2841 2188 
Q 3044 2119 3236 1894 
Q 3428 1669 3622 1275 
L 4263 0 
L 3584 0 
L 2988 1197 
Q 2756 1666 2539 1819 
Q 2322 1972 1947 1972 
L 1259 1972 
L 1259 0 
L 628 0 
L 628 4666 
L 2053 4666 
Q 2853 4666 3247 4331 
Q 3641 3997 3641 3322 
Q 3641 2881 3436 2590 
Q 3231 2300 2841 2188 
z
M 1259 4147 
L 1259 2491 
L 2053 2491 
Q 2509 2491 2742 2702 
Q 2975 2913 2975 3322 
Q 2975 3731 2742 3939 
Q 2509 4147 2053 4147 
L 1259 4147 
z
" transform="scale(0.015625)"/>
       <path id="DejaVuSans-61" d="M 2194 1759 
Q 1497 1759 1228 1600 
Q 959 1441 959 1056 
Q 959 750 1161 570 
Q 1363 391 1709 391 
Q 2188 391 2477 730 
Q 2766 1069 2766 1631 
L 2766 1759 
L 2194 1759 
z
M 3341 1997 
L 3341 0 
L 2766 0 
L 2766 531 
Q 2569 213 2275 61 
Q 1981 -91 1556 -91 
Q 1019 -91 701 211 
Q 384 513 384 1019 
Q 384 1609 779 1909 
Q 1175 2209 1959 2209 
L 2766 2209 
L 2766 2266 
Q 2766 2663 2505 2880 
Q 2244 3097 1772 3097 
Q 1472 3097 1187 3025 
Q 903 2953 641 2809 
L 641 3341 
Q 956 3463 1253 3523 
Q 1550 3584 1831 3584 
Q 2591 3584 2966 3190 
Q 3341 2797 3341 1997 
z
" transform="scale(0.015625)"/>
       <path id="DejaVuSans-6c" d="M 603 4863 
L 1178 4863 
L 1178 0 
L 603 0 
L 603 4863 
z
" transform="scale(0.015625)"/>
       <path id="DejaVuSans-20" transform="scale(0.015625)"/>
       <path id="DejaVuSans-54" d="M -19 4666 
L 3928 4666 
L 3928 4134 
L 2272 4134 
L 2272 0 
L 1638 0 
L 1638 4134 
L -19 4134 
L -19 4666 
z
" transform="scale(0.015625)"/>
       <path id="DejaVuSans-28" d="M 1984 4856 
Q 1566 4138 1362 3434 
Q 1159 2731 1159 2009 
Q 1159 1288 1364 580 
Q 1569 -128 1984 -844 
L 1484 -844 
Q 1016 -109 783 600 
Q 550 1309 550 2009 
Q 550 2706 781 3412 
Q 1013 4119 1484 4856 
L 1984 4856 
z
" transform="scale(0.015625)"/>
       <path id="DejaVuSans-29" d="M 513 4856 
L 1013 4856 
Q 1481 4119 1714 3412 
Q 1947 2706 1947 2009 
Q 1947 1309 1714 600 
Q 1481 -109 1013 -844 
L 513 -844 
Q 928 -128 1133 580 
Q 1338 1288 1338 2009 
Q 1338 2731 1133 3434 
Q 928 4138 513 4856 
z
" transform="scale(0.015625)"/>
      </defs>
      <use xlink:href="#DejaVuSans-52"/>
      <use xlink:href="#DejaVuSans-65" x="64.982422"/>
      <use xlink:href="#DejaVuSans-61" x="126.505859"/>
      <use xlink:href="#DejaVuSans-6c" x="187.785156"/>
      <use xlink:href="#DejaVuSans-20" x="215.568359"/>
      <use xlink:href="#DejaVuSans-54" x="247.355469"/>
      <use xlink:href="#DejaVuSans-69" x="305.314453"/>
      <use xlink:href="#DejaVuSans-6d" x="333.097656"/>
      <use xlink:href="#DejaVuSans-65" x="430.509766"/>
      <use xlink:href="#DejaVuSans-20" x="492.033203"/>
      <use xlink:href="#DejaVuSans-28" x="523.820312"/>
      <use xlink:href="#DejaVuSans-6d" x="562.833984"/>
      <use xlink:href="#DejaVuSans-73" x="660.246094"/>
      <use xlink:href="#DejaVuSans-29" x="712.345703"/>
     </g>
    </g>
   </g>
   <g id="line2d_34">
    <path d="M 69.218182 231.084582 
L 85.237321 200.387579 
L 101.256459 177.419499 
L 117.275598 163.710624 
L 133.294737 149.995785 
L 149.313876 135.965255 
L 165.333014 128.483731 
L 181.352153 119.929711 
L 197.371292 114.824889 
L 213.390431 107.912893 
L 229.409569 102.065816 
L 245.428708 96.71434 
L 261.447847 92.343642 
L 277.466986 87.885907 
L 293.486124 84.095828 
L 309.505263 79.819991 
L 325.524402 76.74813 
L 341.543541 73.183591 
L 357.562679 70.339455 
L 373.581818 67.263695 
" clip-path="url(#p9458c01cd2)" style="fill: none; stroke: #ff0000; stroke-width: 1.5; stroke-linecap: square"/>
    <defs>
     <path id="meedb94cb3b" d="M 0 -3 
L -0.673542 -0.927051 
L -2.85317 -0.927051 
L -1.089814 0.354102 
L -1.763356 2.427051 
L -0 1.145898 
L 1.763356 2.427051 
L 1.089814 0.354102 
L 2.85317 -0.927051 
L 0.673542 -0.927051 
z
" style="stroke: #ff0000; stroke-linejoin: bevel"/>
    </defs>
    <g clip-path="url(#p9458c01cd2)">
     <use xlink:href="#meedb94cb3b" x="69.218182" y="231.084582" style="fill: #ff0000; stroke: #ff0000; stroke-linejoin: bevel"/>
     <use xlink:href="#meedb94cb3b" x="85.237321" y="200.387579" style="fill: #ff0000; stroke: #ff0000; stroke-linejoin: bevel"/>
     <use xlink:href="#meedb94cb3b" x="101.256459" y="177.419499" style="fill: #ff0000; stroke: #ff0000; stroke-linejoin: bevel"/>
     <use xlink:href="#meedb94cb3b" x="117.275598" y="163.710624" style="fill: #ff0000; stroke: #ff0000; stroke-linejoin: bevel"/>
     <use xlink:href="#meedb94cb3b" x="133.294737" y="149.995785" style="fill: #ff0000; stroke: #ff0000; stroke-linejoin: bevel"/>
     <use xlink:href="#meedb94cb3b" x="149.313876" y="135.965255" style="fill: #ff0000; stroke: #ff0000; stroke-linejoin: bevel"/>
     <use xlink:href="#meedb94cb3b" x="165.333014" y="128.483731" style="fill: #ff0000; stroke: #ff0000; stroke-linejoin: bevel"/>
     <use xlink:href="#meedb94cb3b" x="181.352153" y="119.929711" style="fill: #ff0000; stroke: #ff0000; stroke-linejoin: bevel"/>
     <use xlink:href="#meedb94cb3b" x="197.371292" y="114.824889" style="fill: #ff0000; stroke: #ff0000; stroke-linejoin: bevel"/>
     <use xlink:href="#meedb94cb3b" x="213.390431" y="107.912893" style="fill: #ff0000; stroke: #ff0000; stroke-linejoin: bevel"/>
     <use xlink:href="#meedb94cb3b" x="229.409569" y="102.065816" style="fill: #ff0000; stroke: #ff0000; stroke-linejoin: bevel"/>
     <use xlink:href="#meedb94cb3b" x="245.428708" y="96.71434" style="fill: #ff0000; stroke: #ff0000; stroke-linejoin: bevel"/>
     <use xlink:href="#meedb94cb3b" x="261.447847" y="92.343642" style="fill: #ff0000; stroke: #ff0000; stroke-linejoin: bevel"/>
     <use xlink:href="#meedb94cb3b" x="277.466986" y="87.885907" style="fill: #ff0000; stroke: #ff0000; stroke-linejoin: bevel"/>
     <use xlink:href="#meedb94cb3b" x="293.486124" y="84.095828" style="fill: #ff0000; stroke: #ff0000; stroke-linejoin: bevel"/>
     <use xlink:href="#meedb94cb3b" x="309.505263" y="79.819991" style="fill: #ff0000; stroke: #ff0000; stroke-linejoin: bevel"/>
     <use xlink:href="#meedb94cb3b" x="325.524402" y="76.74813" style="fill: #ff0000; stroke: #ff0000; stroke-linejoin: bevel"/>
     <use xlink:href="#meedb94cb3b" x="341.543541" y="73.183591" style="fill: #ff0000; stroke: #ff0000; stroke-linejoin: bevel"/>
     <use xlink:href="#meedb94cb3b" x="357.562679" y="70.339455" style="fill: #ff0000; stroke: #ff0000; stroke-linejoin: bevel"/>
     <use xlink:href="#meedb94cb3b" x="373.581818" y="67.263695" style="fill: #ff0000; stroke: #ff0000; stroke-linejoin: bevel"/>
    </g>
   </g>
   <g id="line2d_35">
    <path d="M 69.218182 231.811939 
L 85.237321 200.040018 
L 101.256459 176.666134 
L 117.275598 160.463592 
L 133.294737 149.62979 
L 149.313876 136.78561 
L 165.333014 127.988149 
L 181.352153 121.82585 
L 197.371292 114.995396 
L 213.390431 108.17415 
L 229.409569 102.853861 
L 245.428708 96.923458 
L 261.447847 92.720138 
L 277.466986 87.741793 
L 293.486124 83.924116 
L 309.505263 80.491563 
L 325.524402 76.916048 
L 341.543541 73.399656 
L 357.562679 70.447118 
L 373.581818 67.381908 
" clip-path="url(#p9458c01cd2)" style="fill: none; stroke: #008000; stroke-width: 1.5; stroke-linecap: square"/>
    <defs>
     <path id="me1320a13fa" d="M 0 -3 
L -2.85317 -0.927051 
L -1.763356 2.427051 
L 1.763356 2.427051 
L 2.85317 -0.927051 
z
" style="stroke: #008000; stroke-linejoin: miter"/>
    </defs>
    <g clip-path="url(#p9458c01cd2)">
     <use xlink:href="#me1320a13fa" x="69.218182" y="231.811939" style="fill: #008000; stroke: #008000; stroke-linejoin: miter"/>
     <use xlink:href="#me1320a13fa" x="85.237321" y="200.040018" style="fill: #008000; stroke: #008000; stroke-linejoin: miter"/>
     <use xlink:href="#me1320a13fa" x="101.256459" y="176.666134" style="fill: #008000; stroke: #008000; stroke-linejoin: miter"/>
     <use xlink:href="#me1320a13fa" x="117.275598" y="160.463592" style="fill: #008000; stroke: #008000; stroke-linejoin: miter"/>
     <use xlink:href="#me1320a13fa" x="133.294737" y="149.62979" style="fill: #008000; stroke: #008000; stroke-linejoin: miter"/>
     <use xlink:href="#me1320a13fa" x="149.313876" y="136.78561" style="fill: #008000; stroke: #008000; stroke-linejoin: miter"/>
     <use xlink:href="#me1320a13fa" x="165.333014" y="127.988149" style="fill: #008000; stroke: #008000; stroke-linejoin: miter"/>
     <use xlink:href="#me1320a13fa" x="181.352153" y="121.82585" style="fill: #008000; stroke: #008000; stroke-linejoin: miter"/>
     <use xlink:href="#me1320a13fa" x="197.371292" y="114.995396" style="fill: #008000; stroke: #008000; stroke-linejoin: miter"/>
     <use xlink:href="#me1320a13fa" x="213.390431" y="108.17415" style="fill: #008000; stroke: #008000; stroke-linejoin: miter"/>
     <use xlink:href="#me1320a13fa" x="229.409569" y="102.853861" style="fill: #008000; stroke: #008000; stroke-linejoin: miter"/>
     <use xlink:href="#me1320a13fa" x="245.428708" y="96.923458" style="fill: #008000; stroke: #008000; stroke-linejoin: miter"/>
     <use xlink:href="#me1320a13fa" x="261.447847" y="92.720138" style="fill: #008000; stroke: #008000; stroke-linejoin: miter"/>
     <use xlink:href="#me1320a13fa" x="277.466986" y="87.741793" style="fill: #008000; stroke: #008000; stroke-linejoin: miter"/>
     <use xlink:href="#me1320a13fa" x="293.486124" y="83.924116" style="fill: #008000; stroke: #008000; stroke-linejoin: miter"/>
     <use xlink:href="#me1320a13fa" x="309.505263" y="80.491563" style="fill: #008000; stroke: #008000; stroke-linejoin: miter"/>
     <use xlink:href="#me1320a13fa" x="325.524402" y="76.916048" style="fill: #008000; stroke: #008000; stroke-linejoin: miter"/>
     <use xlink:href="#me1320a13fa" x="341.543541" y="73.399656" style="fill: #008000; stroke: #008000; stroke-linejoin: miter"/>
     <use xlink:href="#me1320a13fa" x="357.562679" y="70.447118" style="fill: #008000; stroke: #008000; stroke-linejoin: miter"/>
     <use xlink:href="#me1320a13fa" x="373.581818" y="67.381908" style="fill: #008000; stroke: #008000; stroke-linejoin: miter"/>
    </g>
   </g>
   <g id="line2d_36">
    <path d="M 69.218182 198.974633 
L 85.237321 170.794437 
L 101.256459 151.169488 
L 117.275598 135.951813 
L 133.294737 123.838208 
L 149.313876 113.583893 
L 165.333014 105.114019 
L 181.352153 97.598188 
L 197.371292 90.696452 
L 213.390431 84.799491 
L 229.409569 78.810517 
L 245.428708 74.246866 
L 261.447847 69.544177 
L 277.466986 65.251025 
L 293.486124 61.271503 
L 309.505263 57.491366 
L 325.524402 53.921147 
L 341.543541 50.564257 
L 357.562679 47.450325 
L 373.581818 44.443636 
" clip-path="url(#p9458c01cd2)" style="fill: none; stroke: #808000; stroke-width: 1.5; stroke-linecap: square"/>
    <defs>
     <path id="m06aa3091ff" d="M 0 3 
C 0.795609 3 1.55874 2.683901 2.12132 2.12132 
C 2.683901 1.55874 3 0.795609 3 0 
C 3 -0.795609 2.683901 -1.55874 2.12132 -2.12132 
C 1.55874 -2.683901 0.795609 -3 0 -3 
C -0.795609 -3 -1.55874 -2.683901 -2.12132 -2.12132 
C -2.683901 -1.55874 -3 -0.795609 -3 0 
C -3 0.795609 -2.683901 1.55874 -2.12132 2.12132 
C -1.55874 2.683901 -0.795609 3 0 3 
z
" style="stroke: #808000"/>
    </defs>
    <g clip-path="url(#p9458c01cd2)">
     <use xlink:href="#m06aa3091ff" x="69.218182" y="198.974633" style="fill: #808000; stroke: #808000"/>
     <use xlink:href="#m06aa3091ff" x="85.237321" y="170.794437" style="fill: #808000; stroke: #808000"/>
     <use xlink:href="#m06aa3091ff" x="101.256459" y="151.169488" style="fill: #808000; stroke: #808000"/>
     <use xlink:href="#m06aa3091ff" x="117.275598" y="135.951813" style="fill: #808000; stroke: #808000"/>
     <use xlink:href="#m06aa3091ff" x="133.294737" y="123.838208" style="fill: #808000; stroke: #808000"/>
     <use xlink:href="#m06aa3091ff" x="149.313876" y="113.583893" style="fill: #808000; stroke: #808000"/>
     <use xlink:href="#m06aa3091ff" x="165.333014" y="105.114019" style="fill: #808000; stroke: #808000"/>
     <use xlink:href="#m06aa3091ff" x="181.352153" y="97.598188" style="fill: #808000; stroke: #808000"/>
     <use xlink:href="#m06aa3091ff" x="197.371292" y="90.696452" style="fill: #808000; stroke: #808000"/>
     <use xlink:href="#m06aa3091ff" x="213.390431" y="84.799491" style="fill: #808000; stroke: #808000"/>
     <use xlink:href="#m06aa3091ff" x="229.409569" y="78.810517" style="fill: #808000; stroke: #808000"/>
     <use xlink:href="#m06aa3091ff" x="245.428708" y="74.246866" style="fill: #808000; stroke: #808000"/>
     <use xlink:href="#m06aa3091ff" x="261.447847" y="69.544177" style="fill: #808000; stroke: #808000"/>
     <use xlink:href="#m06aa3091ff" x="277.466986" y="65.251025" style="fill: #808000; stroke: #808000"/>
     <use xlink:href="#m06aa3091ff" x="293.486124" y="61.271503" style="fill: #808000; stroke: #808000"/>
     <use xlink:href="#m06aa3091ff" x="309.505263" y="57.491366" style="fill: #808000; stroke: #808000"/>
     <use xlink:href="#m06aa3091ff" x="325.524402" y="53.921147" style="fill: #808000; stroke: #808000"/>
     <use xlink:href="#m06aa3091ff" x="341.543541" y="50.564257" style="fill: #808000; stroke: #808000"/>
     <use xlink:href="#m06aa3091ff" x="357.562679" y="47.450325" style="fill: #808000; stroke: #808000"/>
     <use xlink:href="#m06aa3091ff" x="373.581818" y="44.443636" style="fill: #808000; stroke: #808000"/>
    </g>
   </g>
   <g id="line2d_37">
    <path d="M 69.218182 242.116364 
L 85.237321 203.734116 
L 101.256459 178.993485 
L 117.275598 164.436538 
L 133.294737 146.851155 
L 149.313876 133.45966 
L 165.333014 124.168216 
L 181.352153 116.95658 
L 197.371292 109.931406 
L 213.390431 103.997514 
L 229.409569 97.996929 
L 245.428708 92.318723 
L 261.447847 87.644372 
L 277.466986 83.787774 
L 293.486124 78.914621 
L 309.505263 75.093398 
L 325.524402 71.696683 
L 341.543541 68.51355 
L 357.562679 64.869815 
L 373.581818 61.285977 
" clip-path="url(#p9458c01cd2)" style="fill: none; stroke: #0000ff; stroke-width: 1.5; stroke-linecap: square"/>
    <defs>
     <path id="mbb73476268" d="M 0 1.5 
C 0.397805 1.5 0.77937 1.341951 1.06066 1.06066 
C 1.341951 0.77937 1.5 0.397805 1.5 0 
C 1.5 -0.397805 1.341951 -0.77937 1.06066 -1.06066 
C 0.77937 -1.341951 0.397805 -1.5 0 -1.5 
C -0.397805 -1.5 -0.77937 -1.341951 -1.06066 -1.06066 
C -1.341951 -0.77937 -1.5 -0.397805 -1.5 0 
C -1.5 0.397805 -1.341951 0.77937 -1.06066 1.06066 
C -0.77937 1.341951 -0.397805 1.5 0 1.5 
z
" style="stroke: #0000ff"/>
    </defs>
    <g clip-path="url(#p9458c01cd2)">
     <use xlink:href="#mbb73476268" x="69.218182" y="242.116364" style="fill: #0000ff; stroke: #0000ff"/>
     <use xlink:href="#mbb73476268" x="85.237321" y="203.734116" style="fill: #0000ff; stroke: #0000ff"/>
     <use xlink:href="#mbb73476268" x="101.256459" y="178.993485" style="fill: #0000ff; stroke: #0000ff"/>
     <use xlink:href="#mbb73476268" x="117.275598" y="164.436538" style="fill: #0000ff; stroke: #0000ff"/>
     <use xlink:href="#mbb73476268" x="133.294737" y="146.851155" style="fill: #0000ff; stroke: #0000ff"/>
     <use xlink:href="#mbb73476268" x="149.313876" y="133.45966" style="fill: #0000ff; stroke: #0000ff"/>
     <use xlink:href="#mbb73476268" x="165.333014" y="124.168216" style="fill: #0000ff; stroke: #0000ff"/>
     <use xlink:href="#mbb73476268" x="181.352153" y="116.95658" style="fill: #0000ff; stroke: #0000ff"/>
     <use xlink:href="#mbb73476268" x="197.371292" y="109.931406" style="fill: #0000ff; stroke: #0000ff"/>
     <use xlink:href="#mbb73476268" x="213.390431" y="103.997514" style="fill: #0000ff; stroke: #0000ff"/>
     <use xlink:href="#mbb73476268" x="229.409569" y="97.996929" style="fill: #0000ff; stroke: #0000ff"/>
     <use xlink:href="#mbb73476268" x="245.428708" y="92.318723" style="fill: #0000ff; stroke: #0000ff"/>
     <use xlink:href="#mbb73476268" x="261.447847" y="87.644372" style="fill: #0000ff; stroke: #0000ff"/>
     <use xlink:href="#mbb73476268" x="277.466986" y="83.787774" style="fill: #0000ff; stroke: #0000ff"/>
     <use xlink:href="#mbb73476268" x="293.486124" y="78.914621" style="fill: #0000ff; stroke: #0000ff"/>
     <use xlink:href="#mbb73476268" x="309.505263" y="75.093398" style="fill: #0000ff; stroke: #0000ff"/>
     <use xlink:href="#mbb73476268" x="325.524402" y="71.696683" style="fill: #0000ff; stroke: #0000ff"/>
     <use xlink:href="#mbb73476268" x="341.543541" y="68.51355" style="fill: #0000ff; stroke: #0000ff"/>
     <use xlink:href="#mbb73476268" x="357.562679" y="64.869815" style="fill: #0000ff; stroke: #0000ff"/>
     <use xlink:href="#mbb73476268" x="373.581818" y="61.285977" style="fill: #0000ff; stroke: #0000ff"/>
    </g>
   </g>
   <g id="line2d_38">
    <path d="M 69.218182 239.51809 
L 85.237321 207.06814 
L 101.256459 179.616577 
L 117.275598 160.931821 
L 133.294737 149.152097 
L 149.313876 137.771706 
L 165.333014 128.143041 
L 181.352153 121.496555 
L 197.371292 113.60687 
L 213.390431 106.904902 
L 229.409569 102.258655 
L 245.428708 96.55298 
L 261.447847 92.124828 
L 277.466986 88.140668 
L 293.486124 83.681377 
L 309.505263 79.93969 
L 325.524402 76.879315 
L 341.543541 73.076638 
L 357.562679 69.937904 
L 373.581818 67.776521 
" clip-path="url(#p9458c01cd2)" style="fill: none; stroke-dasharray: 5.55,2.4; stroke-dashoffset: 0; stroke: #000000; stroke-width: 1.5"/>
    <defs>
     <path id="m09555a061d" d="M -0 3 
L 3 -3 
L -3 -3 
z
" style="stroke: #000000; stroke-linejoin: miter"/>
    </defs>
    <g clip-path="url(#p9458c01cd2)">
     <use xlink:href="#m09555a061d" x="69.218182" y="239.51809" style="stroke: #000000; stroke-linejoin: miter"/>
     <use xlink:href="#m09555a061d" x="85.237321" y="207.06814" style="stroke: #000000; stroke-linejoin: miter"/>
     <use xlink:href="#m09555a061d" x="101.256459" y="179.616577" style="stroke: #000000; stroke-linejoin: miter"/>
     <use xlink:href="#m09555a061d" x="117.275598" y="160.931821" style="stroke: #000000; stroke-linejoin: miter"/>
     <use xlink:href="#m09555a061d" x="133.294737" y="149.152097" style="stroke: #000000; stroke-linejoin: miter"/>
     <use xlink:href="#m09555a061d" x="149.313876" y="137.771706" style="stroke: #000000; stroke-linejoin: miter"/>
     <use xlink:href="#m09555a061d" x="165.333014" y="128.143041" style="stroke: #000000; stroke-linejoin: miter"/>
     <use xlink:href="#m09555a061d" x="181.352153" y="121.496555" style="stroke: #000000; stroke-linejoin: miter"/>
     <use xlink:href="#m09555a061d" x="197.371292" y="113.60687" style="stroke: #000000; stroke-linejoin: miter"/>
     <use xlink:href="#m09555a061d" x="213.390431" y="106.904902" style="stroke: #000000; stroke-linejoin: miter"/>
     <use xlink:href="#m09555a061d" x="229.409569" y="102.258655" style="stroke: #000000; stroke-linejoin: miter"/>
     <use xlink:href="#m09555a061d" x="245.428708" y="96.55298" style="stroke: #000000; stroke-linejoin: miter"/>
     <use xlink:href="#m09555a061d" x="261.447847" y="92.124828" style="stroke: #000000; stroke-linejoin: miter"/>
     <use xlink:href="#m09555a061d" x="277.466986" y="88.140668" style="stroke: #000000; stroke-linejoin: miter"/>
     <use xlink:href="#m09555a061d" x="293.486124" y="83.681377" style="stroke: #000000; stroke-linejoin: miter"/>
     <use xlink:href="#m09555a061d" x="309.505263" y="79.93969" style="stroke: #000000; stroke-linejoin: miter"/>
     <use xlink:href="#m09555a061d" x="325.524402" y="76.879315" style="stroke: #000000; stroke-linejoin: miter"/>
     <use xlink:href="#m09555a061d" x="341.543541" y="73.076638" style="stroke: #000000; stroke-linejoin: miter"/>
     <use xlink:href="#m09555a061d" x="357.562679" y="69.937904" style="stroke: #000000; stroke-linejoin: miter"/>
     <use xlink:href="#m09555a061d" x="373.581818" y="67.776521" style="stroke: #000000; stroke-linejoin: miter"/>
    </g>
   </g>
   <g id="patch_3">
    <path d="M 54 252 
L 54 34.56 
" style="fill: none; stroke: #000000; stroke-width: 0.8; stroke-linejoin: miter; stroke-linecap: square"/>
   </g>
   <g id="patch_4">
    <path d="M 388.8 252 
L 388.8 34.56 
" style="fill: none; stroke: #000000; stroke-width: 0.8; stroke-linejoin: miter; stroke-linecap: square"/>
   </g>
   <g id="patch_5">
    <path d="M 54 252 
L 388.8 252 
" style="fill: none; stroke: #000000; stroke-width: 0.8; stroke-linejoin: miter; stroke-linecap: square"/>
   </g>
   <g id="patch_6">
    <path d="M 54 34.56 
L 388.8 34.56 
" style="fill: none; stroke: #000000; stroke-width: 0.8; stroke-linejoin: miter; stroke-linecap: square"/>
   </g>
   <g id="text_11">
    <!-- GEMV -->
    <g transform="translate(203.678438 28.56)scale(0.12 -0.12)">
     <defs>
      <path id="DejaVuSans-47" d="M 3809 666 
L 3809 1919 
L 2778 1919 
L 2778 2438 
L 4434 2438 
L 4434 434 
Q 4069 175 3628 42 
Q 3188 -91 2688 -91 
Q 1594 -91 976 548 
Q 359 1188 359 2328 
Q 359 3472 976 4111 
Q 1594 4750 2688 4750 
Q 3144 4750 3555 4637 
Q 3966 4525 4313 4306 
L 4313 3634 
Q 3963 3931 3569 4081 
Q 3175 4231 2741 4231 
Q 1884 4231 1454 3753 
Q 1025 3275 1025 2328 
Q 1025 1384 1454 906 
Q 1884 428 2741 428 
Q 3075 428 3337 486 
Q 3600 544 3809 666 
z
" transform="scale(0.015625)"/>
      <path id="DejaVuSans-45" d="M 628 4666 
L 3578 4666 
L 3578 4134 
L 1259 4134 
L 1259 2753 
L 3481 2753 
L 3481 2222 
L 1259 2222 
L 1259 531 
L 3634 531 
L 3634 0 
L 628 0 
L 628 4666 
z
" transform="scale(0.015625)"/>
      <path id="DejaVuSans-4d" d="M 628 4666 
L 1569 4666 
L 2759 1491 
L 3956 4666 
L 4897 4666 
L 4897 0 
L 4281 0 
L 4281 4097 
L 3078 897 
L 2444 897 
L 1241 4097 
L 1241 0 
L 628 0 
L 628 4666 
z
" transform="scale(0.015625)"/>
      <path id="DejaVuSans-56" d="M 1831 0 
L 50 4666 
L 709 4666 
L 2188 738 
L 3669 4666 
L 4325 4666 
L 2547 0 
L 1831 0 
z
" transform="scale(0.015625)"/>
     </defs>
     <use xlink:href="#DejaVuSans-47"/>
     <use xlink:href="#DejaVuSans-45" x="77.490234"/>
     <use xlink:href="#DejaVuSans-4d" x="140.673828"/>
     <use xlink:href="#DejaVuSans-56" x="226.953125"/>
    </g>
   </g>
   <g id="legend_1">
    <g id="patch_7">
     <path d="M 276.596875 247 
L 381.8 247 
Q 383.8 247 383.8 245 
L 383.8 171.21875 
Q 383.8 169.21875 381.8 169.21875 
L 276.596875 169.21875 
Q 274.596875 169.21875 274.596875 171.21875 
L 274.596875 245 
Q 274.596875 247 276.596875 247 
z
" style="fill: #ffffff; opacity: 0.8; stroke: #cccccc; stroke-linejoin: miter"/>
    </g>
    <g id="line2d_39">
     <path d="M 278.596875 177.317187 
L 288.596875 177.317187 
L 298.596875 177.317187 
" style="fill: none; stroke: #ff0000; stroke-width: 1.5; stroke-linecap: square"/>
     <g>
      <use xlink:href="#meedb94cb3b" x="288.596875" y="177.317187" style="fill: #ff0000; stroke: #ff0000; stroke-linejoin: bevel"/>
     </g>
    </g>
    <g id="text_12">
     <!-- blas_real_time -->
     <g transform="translate(306.596875 180.817187)scale(0.1 -0.1)">
      <defs>
       <path id="DejaVuSans-62" d="M 3116 1747 
Q 3116 2381 2855 2742 
Q 2594 3103 2138 3103 
Q 1681 3103 1420 2742 
Q 1159 2381 1159 1747 
Q 1159 1113 1420 752 
Q 1681 391 2138 391 
Q 2594 391 2855 752 
Q 3116 1113 3116 1747 
z
M 1159 2969 
Q 1341 3281 1617 3432 
Q 1894 3584 2278 3584 
Q 2916 3584 3314 3078 
Q 3713 2572 3713 1747 
Q 3713 922 3314 415 
Q 2916 -91 2278 -91 
Q 1894 -91 1617 61 
Q 1341 213 1159 525 
L 1159 0 
L 581 0 
L 581 4863 
L 1159 4863 
L 1159 2969 
z
" transform="scale(0.015625)"/>
       <path id="DejaVuSans-5f" d="M 3263 -1063 
L 3263 -1509 
L -63 -1509 
L -63 -1063 
L 3263 -1063 
z
" transform="scale(0.015625)"/>
       <path id="DejaVuSans-72" d="M 2631 2963 
Q 2534 3019 2420 3045 
Q 2306 3072 2169 3072 
Q 1681 3072 1420 2755 
Q 1159 2438 1159 1844 
L 1159 0 
L 581 0 
L 581 3500 
L 1159 3500 
L 1159 2956 
Q 1341 3275 1631 3429 
Q 1922 3584 2338 3584 
Q 2397 3584 2469 3576 
Q 2541 3569 2628 3553 
L 2631 2963 
z
" transform="scale(0.015625)"/>
       <path id="DejaVuSans-74" d="M 1172 4494 
L 1172 3500 
L 2356 3500 
L 2356 3053 
L 1172 3053 
L 1172 1153 
Q 1172 725 1289 603 
Q 1406 481 1766 481 
L 2356 481 
L 2356 0 
L 1766 0 
Q 1100 0 847 248 
Q 594 497 594 1153 
L 594 3053 
L 172 3053 
L 172 3500 
L 594 3500 
L 594 4494 
L 1172 4494 
z
" transform="scale(0.015625)"/>
      </defs>
      <use xlink:href="#DejaVuSans-62"/>
      <use xlink:href="#DejaVuSans-6c" x="63.476562"/>
      <use xlink:href="#DejaVuSans-61" x="91.259766"/>
      <use xlink:href="#DejaVuSans-73" x="152.539062"/>
      <use xlink:href="#DejaVuSans-5f" x="204.638672"/>
      <use xlink:href="#DejaVuSans-72" x="254.638672"/>
      <use xlink:href="#DejaVuSans-65" x="293.501953"/>
      <use xlink:href="#DejaVuSans-61" x="355.025391"/>
      <use xlink:href="#DejaVuSans-6c" x="416.304688"/>
      <use xlink:href="#DejaVuSans-5f" x="444.087891"/>
      <use xlink:href="#DejaVuSans-74" x="494.087891"/>
      <use xlink:href="#DejaVuSans-69" x="533.296875"/>
      <use xlink:href="#DejaVuSans-6d" x="561.080078"/>
      <use xlink:href="#DejaVuSans-65" x="658.492188"/>
     </g>
    </g>
    <g id="line2d_40">
     <path d="M 278.596875 192.273438 
L 288.596875 192.273438 
L 298.596875 192.273438 
" style="fill: none; stroke: #008000; stroke-width: 1.5; stroke-linecap: square"/>
     <g>
      <use xlink:href="#me1320a13fa" x="288.596875" y="192.273438" style="fill: #008000; stroke: #008000; stroke-linejoin: miter"/>
     </g>
    </g>
    <g id="text_13">
     <!-- gsl_real_time -->
     <g transform="translate(306.596875 195.773438)scale(0.1 -0.1)">
      <defs>
       <path id="DejaVuSans-67" d="M 2906 1791 
Q 2906 2416 2648 2759 
Q 2391 3103 1925 3103 
Q 1463 3103 1205 2759 
Q 947 2416 947 1791 
Q 947 1169 1205 825 
Q 1463 481 1925 481 
Q 2391 481 2648 825 
Q 2906 1169 2906 1791 
z
M 3481 434 
Q 3481 -459 3084 -895 
Q 2688 -1331 1869 -1331 
Q 1566 -1331 1297 -1286 
Q 1028 -1241 775 -1147 
L 775 -588 
Q 1028 -725 1275 -790 
Q 1522 -856 1778 -856 
Q 2344 -856 2625 -561 
Q 2906 -266 2906 331 
L 2906 616 
Q 2728 306 2450 153 
Q 2172 0 1784 0 
Q 1141 0 747 490 
Q 353 981 353 1791 
Q 353 2603 747 3093 
Q 1141 3584 1784 3584 
Q 2172 3584 2450 3431 
Q 2728 3278 2906 2969 
L 2906 3500 
L 3481 3500 
L 3481 434 
z
" transform="scale(0.015625)"/>
      </defs>
      <use xlink:href="#DejaVuSans-67"/>
      <use xlink:href="#DejaVuSans-73" x="63.476562"/>
      <use xlink:href="#DejaVuSans-6c" x="115.576172"/>
      <use xlink:href="#DejaVuSans-5f" x="143.359375"/>
      <use xlink:href="#DejaVuSans-72" x="193.359375"/>
      <use xlink:href="#DejaVuSans-65" x="232.222656"/>
      <use xlink:href="#DejaVuSans-61" x="293.746094"/>
      <use xlink:href="#DejaVuSans-6c" x="355.025391"/>
      <use xlink:href="#DejaVuSans-5f" x="382.808594"/>
      <use xlink:href="#DejaVuSans-74" x="432.808594"/>
      <use xlink:href="#DejaVuSans-69" x="472.017578"/>
      <use xlink:href="#DejaVuSans-6d" x="499.800781"/>
      <use xlink:href="#DejaVuSans-65" x="597.212891"/>
     </g>
    </g>
    <g id="line2d_41">
     <path d="M 278.596875 207.229688 
L 288.596875 207.229688 
L 298.596875 207.229688 
" style="fill: none; stroke: #808000; stroke-width: 1.5; stroke-linecap: square"/>
     <g>
      <use xlink:href="#m06aa3091ff" x="288.596875" y="207.229688" style="fill: #808000; stroke: #808000"/>
     </g>
    </g>
    <g id="text_14">
     <!-- tblis_real_time -->
     <g transform="translate(306.596875 210.729688)scale(0.1 -0.1)">
      <use xlink:href="#DejaVuSans-74"/>
      <use xlink:href="#DejaVuSans-62" x="39.208984"/>
      <use xlink:href="#DejaVuSans-6c" x="102.685547"/>
      <use xlink:href="#DejaVuSans-69" x="130.46875"/>
      <use xlink:href="#DejaVuSans-73" x="158.251953"/>
      <use xlink:href="#DejaVuSans-5f" x="210.351562"/>
      <use xlink:href="#DejaVuSans-72" x="260.351562"/>
      <use xlink:href="#DejaVuSans-65" x="299.214844"/>
      <use xlink:href="#DejaVuSans-61" x="360.738281"/>
      <use xlink:href="#DejaVuSans-6c" x="422.017578"/>
      <use xlink:href="#DejaVuSans-5f" x="449.800781"/>
      <use xlink:href="#DejaVuSans-74" x="499.800781"/>
      <use xlink:href="#DejaVuSans-69" x="539.009766"/>
      <use xlink:href="#DejaVuSans-6d" x="566.792969"/>
      <use xlink:href="#DejaVuSans-65" x="664.205078"/>
     </g>
    </g>
    <g id="line2d_42">
     <path d="M 278.596875 222.185938 
L 288.596875 222.185938 
L 298.596875 222.185938 
" style="fill: none; stroke: #0000ff; stroke-width: 1.5; stroke-linecap: square"/>
     <g>
      <use xlink:href="#mbb73476268" x="288.596875" y="222.185938" style="fill: #0000ff; stroke: #0000ff"/>
     </g>
    </g>
    <g id="text_15">
     <!-- taco_real_time -->
     <g transform="translate(306.596875 225.685938)scale(0.1 -0.1)">
      <defs>
       <path id="DejaVuSans-63" d="M 3122 3366 
L 3122 2828 
Q 2878 2963 2633 3030 
Q 2388 3097 2138 3097 
Q 1578 3097 1268 2742 
Q 959 2388 959 1747 
Q 959 1106 1268 751 
Q 1578 397 2138 397 
Q 2388 397 2633 464 
Q 2878 531 3122 666 
L 3122 134 
Q 2881 22 2623 -34 
Q 2366 -91 2075 -91 
Q 1284 -91 818 406 
Q 353 903 353 1747 
Q 353 2603 823 3093 
Q 1294 3584 2113 3584 
Q 2378 3584 2631 3529 
Q 2884 3475 3122 3366 
z
" transform="scale(0.015625)"/>
      </defs>
      <use xlink:href="#DejaVuSans-74"/>
      <use xlink:href="#DejaVuSans-61" x="39.208984"/>
      <use xlink:href="#DejaVuSans-63" x="100.488281"/>
      <use xlink:href="#DejaVuSans-6f" x="155.46875"/>
      <use xlink:href="#DejaVuSans-5f" x="216.650391"/>
      <use xlink:href="#DejaVuSans-72" x="266.650391"/>
      <use xlink:href="#DejaVuSans-65" x="305.513672"/>
      <use xlink:href="#DejaVuSans-61" x="367.037109"/>
      <use xlink:href="#DejaVuSans-6c" x="428.316406"/>
      <use xlink:href="#DejaVuSans-5f" x="456.099609"/>
      <use xlink:href="#DejaVuSans-74" x="506.099609"/>
      <use xlink:href="#DejaVuSans-69" x="545.308594"/>
      <use xlink:href="#DejaVuSans-6d" x="573.091797"/>
      <use xlink:href="#DejaVuSans-65" x="670.503906"/>
     </g>
    </g>
    <g id="line2d_43">
     <path d="M 278.596875 237.142188 
L 288.596875 237.142188 
L 298.596875 237.142188 
" style="fill: none; stroke-dasharray: 5.55,2.4; stroke-dashoffset: 0; stroke: #000000; stroke-width: 1.5"/>
     <g>
      <use xlink:href="#m09555a061d" x="288.596875" y="237.142188" style="stroke: #000000; stroke-linejoin: miter"/>
     </g>
    </g>
    <g id="text_16">
     <!-- mkl_real_time -->
     <g transform="translate(306.596875 240.642188)scale(0.1 -0.1)">
      <defs>
       <path id="DejaVuSans-6b" d="M 581 4863 
L 1159 4863 
L 1159 1991 
L 2875 3500 
L 3609 3500 
L 1753 1863 
L 3688 0 
L 2938 0 
L 1159 1709 
L 1159 0 
L 581 0 
L 581 4863 
z
" transform="scale(0.015625)"/>
      </defs>
      <use xlink:href="#DejaVuSans-6d"/>
      <use xlink:href="#DejaVuSans-6b" x="97.412109"/>
      <use xlink:href="#DejaVuSans-6c" x="155.322266"/>
      <use xlink:href="#DejaVuSans-5f" x="183.105469"/>
      <use xlink:href="#DejaVuSans-72" x="233.105469"/>
      <use xlink:href="#DejaVuSans-65" x="271.96875"/>
      <use xlink:href="#DejaVuSans-61" x="333.492188"/>
      <use xlink:href="#DejaVuSans-6c" x="394.771484"/>
      <use xlink:href="#DejaVuSans-5f" x="422.554688"/>
      <use xlink:href="#DejaVuSans-74" x="472.554688"/>
      <use xlink:href="#DejaVuSans-69" x="511.763672"/>
      <use xlink:href="#DejaVuSans-6d" x="539.546875"/>
      <use xlink:href="#DejaVuSans-65" x="636.958984"/>
     </g>
    </g>
   </g>
  </g>
 </g>
 <defs>
  <clipPath id="p9458c01cd2">
   <rect x="54" y="34.56" width="334.8" height="217.44"/>
  </clipPath>
 </defs>
</svg>
